<svg xmlns="http://www.w3.org/2000/svg" xmlns:xlink="http://www.w3.org/1999/xlink" viewBox="0 0 1366 768"><defs><style>.cls-1{fill:none;}.cls-2{isolation:isolate;}.cls-3{clip-path:url(#clip-path);}.cls-4{clip-path:url(#clip-path-2);}.cls-5{fill:#29343d;}.cls-12,.cls-5{mix-blend-mode:multiply;}.cls-6{fill:#fff;}.cls-7{fill:#a7ceda;}.cls-8{fill:#8bb0c6;}.cls-9{fill:#7092b0;}.cls-10{fill:#54769b;}.cls-11{fill:#325e8a;}</style><clipPath id="clip-path"><rect class="cls-1" y="0.24" width="1366" height="768"/></clipPath><clipPath id="clip-path-2"><rect class="cls-1" x="-37.36" width="1471.1" height="768"/></clipPath></defs><title>Mesa de trabajo 1</title><g class="cls-2"><g id="Capa_1" data-name="Capa 1"><g class="cls-3"><g class="cls-4"><image width="5184" height="3456" transform="translate(-39.14 -209.27) scale(0.28)" xlink:href="../Downloads/IMG_6368.JPG"/></g><rect class="cls-5" x="-39.36" width="1471.1" height="768"/></g><path class="cls-6" d="M785.14,441.9h1.61v15.8h8v1.46h-9.66Z"/><path class="cls-6" d="M810.55,454.43q0,.83,0,1.49t0,1.22q0,.56.06,1t.11,1H809.4a10.56,10.56,0,0,1-.15-1.83h0a4.11,4.11,0,0,1-1.57,1.61,4.93,4.93,0,0,1-2.38.51,5.71,5.71,0,0,1-1.44-.18,3.77,3.77,0,0,1-1.27-.59,3,3,0,0,1-1.27-2.57,3,3,0,0,1,.66-2,4.11,4.11,0,0,1,1.62-1.13,7.7,7.7,0,0,1,2-.49q1.08-.11,1.91-.11h1.71v-.68a2.38,2.38,0,0,0-.9-2.1,3.85,3.85,0,0,0-2.27-.63,5.14,5.14,0,0,0-3.44,1.27l-.85-1a5.21,5.21,0,0,1,2-1.18,7.18,7.18,0,0,1,2.29-.4,5.13,5.13,0,0,1,3.27,1,3.73,3.73,0,0,1,1.22,3.11Zm-2.93-.93a12.81,12.81,0,0,0-1.79.12,6.28,6.28,0,0,0-1.56.41,2.9,2.9,0,0,0-1.11.78,1.82,1.82,0,0,0-.41,1.22,1.8,1.8,0,0,0,.23.91,2,2,0,0,0,.6.66,2.79,2.79,0,0,0,.82.39,3.19,3.19,0,0,0,.91.13,4.7,4.7,0,0,0,1.93-.34,3.27,3.27,0,0,0,1.21-.89,3.1,3.1,0,0,0,.62-1.24,5.88,5.88,0,0,0,.17-1.4v-.76Z"/><path class="cls-6" d="M819,440.73h1.46v9.15h0a3.79,3.79,0,0,1,.85-1,5.15,5.15,0,0,1,1.11-.71,5.57,5.57,0,0,1,1.26-.41,6.48,6.48,0,0,1,1.29-.13,6.28,6.28,0,0,1,2.38.44,5.52,5.52,0,0,1,3.11,3.11,6.66,6.66,0,0,1,0,4.76,5.52,5.52,0,0,1-3.11,3.11,6.29,6.29,0,0,1-2.38.44,6.48,6.48,0,0,1-1.29-.13,5.55,5.55,0,0,1-1.26-.41,5.1,5.1,0,0,1-1.11-.71,3.79,3.79,0,0,1-.85-1h0v2H819Zm1.32,12.8a4.45,4.45,0,0,0,.37,1.79,4.59,4.59,0,0,0,1,1.46,4.8,4.8,0,0,0,1.49,1,4.66,4.66,0,0,0,1.85.37,4.55,4.55,0,0,0,1.85-.37,4.3,4.3,0,0,0,1.41-1,4.19,4.19,0,0,0,.89-1.46,5.42,5.42,0,0,0,0-3.58,4.19,4.19,0,0,0-.89-1.46,4.3,4.3,0,0,0-1.41-1,4.54,4.54,0,0,0-1.85-.37,4.65,4.65,0,0,0-1.85.37,4.8,4.8,0,0,0-1.49,1,4.58,4.58,0,0,0-1,1.46A4.45,4.45,0,0,0,820.33,453.53Z"/><path class="cls-6" d="M838.47,453.53a6.29,6.29,0,0,1,.44-2.38,5.68,5.68,0,0,1,1.22-1.88A5.43,5.43,0,0,1,842,448a6.37,6.37,0,0,1,2.39-.44,6.28,6.28,0,0,1,2.38.44,5.52,5.52,0,0,1,3.11,3.11,6.66,6.66,0,0,1,0,4.76,5.52,5.52,0,0,1-3.11,3.11,6.29,6.29,0,0,1-2.38.44A6.38,6.38,0,0,1,842,459a5.42,5.42,0,0,1-1.88-1.23,5.67,5.67,0,0,1-1.22-1.88A6.28,6.28,0,0,1,838.47,453.53Zm1.46,0a5.22,5.22,0,0,0,.3,1.79,4.19,4.19,0,0,0,.89,1.46,4.3,4.3,0,0,0,1.41,1,4.88,4.88,0,0,0,3.71,0,4.3,4.3,0,0,0,1.41-1,4.2,4.2,0,0,0,.89-1.46,5.42,5.42,0,0,0,0-3.58,4.19,4.19,0,0,0-.89-1.46,4.3,4.3,0,0,0-1.41-1,4.88,4.88,0,0,0-3.71,0,4.29,4.29,0,0,0-1.41,1,4.19,4.19,0,0,0-.89,1.46A5.22,5.22,0,0,0,839.93,453.53Z"/><path class="cls-6" d="M858.47,451.07q0-.32,0-.77t0-.91q0-.46,0-.87t0-.62h1.46q0,.63,0,1.22a3.82,3.82,0,0,0,.06.76,5,5,0,0,1,1.44-1.63,3.57,3.57,0,0,1,2.15-.63,2.44,2.44,0,0,1,.43,0l.43.09-.17,1.44a1.78,1.78,0,0,0-.56-.1,4.07,4.07,0,0,0-1.65.3,3.1,3.1,0,0,0-1.15.84,3.53,3.53,0,0,0-.67,1.26,5.29,5.29,0,0,0-.22,1.55v6.15h-1.46Z"/><path class="cls-6" d="M880.22,454.43q0,.83,0,1.49t0,1.22q0,.56.06,1t.11,1h-1.37a10.56,10.56,0,0,1-.15-1.83h0a4.11,4.11,0,0,1-1.57,1.61,4.93,4.93,0,0,1-2.38.51,5.71,5.71,0,0,1-1.44-.18,3.77,3.77,0,0,1-1.27-.59,3,3,0,0,1-1.27-2.57,3,3,0,0,1,.66-2,4.11,4.11,0,0,1,1.62-1.13,7.7,7.7,0,0,1,2-.49q1.08-.11,1.91-.11h1.71v-.68a2.38,2.38,0,0,0-.9-2.1,3.85,3.85,0,0,0-2.27-.63,5.14,5.14,0,0,0-3.44,1.27l-.85-1a5.21,5.21,0,0,1,2-1.18,7.18,7.18,0,0,1,2.29-.4,5.13,5.13,0,0,1,3.27,1,3.73,3.73,0,0,1,1.22,3.11Zm-2.93-.93a12.81,12.81,0,0,0-1.79.12,6.28,6.28,0,0,0-1.56.41,2.9,2.9,0,0,0-1.11.78,1.82,1.82,0,0,0-.41,1.22,1.8,1.8,0,0,0,.23.91,2,2,0,0,0,.6.66,2.79,2.79,0,0,0,.82.39,3.19,3.19,0,0,0,.91.13,4.7,4.7,0,0,0,1.93-.34,3.27,3.27,0,0,0,1.21-.89,3.1,3.1,0,0,0,.62-1.24,5.88,5.88,0,0,0,.17-1.4v-.76Z"/><path class="cls-6" d="M894.51,449.21h-3.22v7.34a1.58,1.58,0,0,0,.41,1.17,1.55,1.55,0,0,0,1.15.41,3.38,3.38,0,0,0,.84-.11,5.34,5.34,0,0,0,.82-.28l.12,1.32a8.67,8.67,0,0,1-1,.27,4.36,4.36,0,0,1-1,.12,3.5,3.5,0,0,1-1.34-.23,2.37,2.37,0,0,1-.9-.62,2.43,2.43,0,0,1-.5-.91,3.89,3.89,0,0,1-.16-1.13v-7.34h-2.44V447.9h2.44v-3.24h1.46v3.24h3.22Z"/><path class="cls-6" d="M901.36,453.53a6.29,6.29,0,0,1,.44-2.38,5.68,5.68,0,0,1,1.22-1.88A5.43,5.43,0,0,1,904.9,448a6.37,6.37,0,0,1,2.39-.44,6.28,6.28,0,0,1,2.38.44,5.52,5.52,0,0,1,3.11,3.11,6.66,6.66,0,0,1,0,4.76,5.52,5.52,0,0,1-3.11,3.11,6.29,6.29,0,0,1-2.38.44,6.38,6.38,0,0,1-2.39-.44,5.42,5.42,0,0,1-1.88-1.23,5.67,5.67,0,0,1-1.22-1.88A6.28,6.28,0,0,1,901.36,453.53Zm1.46,0a5.22,5.22,0,0,0,.3,1.79,4.19,4.19,0,0,0,.89,1.46,4.3,4.3,0,0,0,1.41,1,4.88,4.88,0,0,0,3.71,0,4.3,4.3,0,0,0,1.41-1,4.2,4.2,0,0,0,.89-1.46,5.42,5.42,0,0,0,0-3.58,4.19,4.19,0,0,0-.89-1.46,4.3,4.3,0,0,0-1.41-1,4.88,4.88,0,0,0-3.71,0,4.29,4.29,0,0,0-1.41,1,4.19,4.19,0,0,0-.89,1.46A5.22,5.22,0,0,0,902.83,453.53Z"/><path class="cls-6" d="M921.36,451.07q0-.32,0-.77t0-.91q0-.46,0-.87t0-.62h1.46q0,.63,0,1.22a3.82,3.82,0,0,0,.06.76,5,5,0,0,1,1.44-1.63,3.57,3.57,0,0,1,2.15-.63,2.44,2.44,0,0,1,.43,0l.43.09-.17,1.44a1.78,1.78,0,0,0-.56-.1,4.07,4.07,0,0,0-1.65.3,3.1,3.1,0,0,0-1.15.84,3.53,3.53,0,0,0-.67,1.26,5.29,5.29,0,0,0-.22,1.55v6.15h-1.46Z"/><path class="cls-6" d="M934.23,443.43a1.08,1.08,0,1,1,.32.78A1.06,1.06,0,0,1,934.23,443.43Zm.37,4.46h1.46v11.27H934.6Z"/><path class="cls-6" d="M944.45,453.53a6.29,6.29,0,0,1,.44-2.38,5.68,5.68,0,0,1,1.22-1.88A5.43,5.43,0,0,1,948,448a6.37,6.37,0,0,1,2.39-.44,6.28,6.28,0,0,1,2.38.44,5.52,5.52,0,0,1,3.11,3.11,6.66,6.66,0,0,1,0,4.76,5.52,5.52,0,0,1-3.11,3.11,6.29,6.29,0,0,1-2.38.44A6.38,6.38,0,0,1,948,459a5.42,5.42,0,0,1-1.88-1.23,5.67,5.67,0,0,1-1.22-1.88A6.28,6.28,0,0,1,944.45,453.53Zm1.46,0a5.22,5.22,0,0,0,.3,1.79,4.19,4.19,0,0,0,.89,1.46,4.3,4.3,0,0,0,1.41,1,4.88,4.88,0,0,0,3.71,0,4.3,4.3,0,0,0,1.41-1,4.2,4.2,0,0,0,.89-1.46,5.42,5.42,0,0,0,0-3.58,4.19,4.19,0,0,0-.89-1.46,4.3,4.3,0,0,0-1.41-1,4.88,4.88,0,0,0-3.71,0,4.29,4.29,0,0,0-1.41,1,4.19,4.19,0,0,0-.89,1.46A5.22,5.22,0,0,0,945.92,453.53Z"/><path class="cls-6" d="M985.52,457.19h0a3.79,3.79,0,0,1-.85,1,5.11,5.11,0,0,1-1.11.71,5.55,5.55,0,0,1-1.26.41,6.48,6.48,0,0,1-1.29.13,6.38,6.38,0,0,1-2.39-.44,5.43,5.43,0,0,1-1.88-1.23,5.67,5.67,0,0,1-1.22-1.88,6.66,6.66,0,0,1,0-4.76,5.68,5.68,0,0,1,1.22-1.88,5.43,5.43,0,0,1,1.88-1.23,6.37,6.37,0,0,1,2.39-.44,6.48,6.48,0,0,1,1.29.13,5.57,5.57,0,0,1,1.26.41,5.16,5.16,0,0,1,1.11.71,3.8,3.8,0,0,1,.85,1h0v-9.15H987v18.44h-1.46Zm.15-3.66a4.45,4.45,0,0,0-.37-1.79,4.59,4.59,0,0,0-1-1.46,4.8,4.8,0,0,0-1.49-1,4.66,4.66,0,0,0-1.85-.37,4.54,4.54,0,0,0-1.85.37,4.3,4.3,0,0,0-1.41,1,4.18,4.18,0,0,0-.89,1.46,5.42,5.42,0,0,0,0,3.58,4.19,4.19,0,0,0,.89,1.46,4.3,4.3,0,0,0,1.41,1,4.55,4.55,0,0,0,1.85.37,4.66,4.66,0,0,0,1.85-.37,4.81,4.81,0,0,0,1.49-1,4.59,4.59,0,0,0,1-1.46A4.45,4.45,0,0,0,985.66,453.53Z"/><path class="cls-6" d="M1005.39,457a4.94,4.94,0,0,1-2.11,1.85,6.72,6.72,0,0,1-2.77.56,6,6,0,0,1-2.34-.44,5.27,5.27,0,0,1-1.8-1.23,5.41,5.41,0,0,1-1.16-1.88,6.86,6.86,0,0,1-.4-2.4,6.44,6.44,0,0,1,.41-2.34,5.59,5.59,0,0,1,1.17-1.87,5.51,5.51,0,0,1,1.78-1.24,5.57,5.57,0,0,1,2.27-.45,5.44,5.44,0,0,1,2.28.45,5,5,0,0,1,1.66,1.2,5.07,5.07,0,0,1,1,1.69,5.67,5.67,0,0,1,.34,1.93v1h-9.46a5,5,0,0,0,.18,1.18,4.18,4.18,0,0,0,.67,1.4,4.24,4.24,0,0,0,1.3,1.17,4.07,4.07,0,0,0,2.11.49,4.71,4.71,0,0,0,2.17-.54,3.91,3.91,0,0,0,1.61-1.46Zm-1.12-4.46a3.33,3.33,0,0,0-.3-1.41,3.79,3.79,0,0,0-.83-1.16,3.93,3.93,0,0,0-1.24-.79,4,4,0,0,0-1.52-.29,3.73,3.73,0,0,0-2,.49,4.35,4.35,0,0,0-1.26,1.12,4.46,4.46,0,0,0-.66,1.23,3.26,3.26,0,0,0-.19.82Z"/><path class="cls-6" d="M1024.46,453.53a6.28,6.28,0,0,1,.44-2.38,5.68,5.68,0,0,1,1.22-1.88A5.43,5.43,0,0,1,1028,448a6.37,6.37,0,0,1,2.39-.44,6.28,6.28,0,0,1,2.38.44,5.52,5.52,0,0,1,3.11,3.11,6.66,6.66,0,0,1,0,4.76,5.52,5.52,0,0,1-3.11,3.11,6.29,6.29,0,0,1-2.38.44A6.38,6.38,0,0,1,1028,459a5.43,5.43,0,0,1-1.88-1.23,5.67,5.67,0,0,1-1.22-1.88A6.28,6.28,0,0,1,1024.46,453.53Zm1.46,0a5.21,5.21,0,0,0,.3,1.79,4.19,4.19,0,0,0,.89,1.46,4.3,4.3,0,0,0,1.41,1,4.88,4.88,0,0,0,3.71,0,4.3,4.3,0,0,0,1.41-1,4.2,4.2,0,0,0,.89-1.46,5.42,5.42,0,0,0,0-3.58,4.19,4.19,0,0,0-.89-1.46,4.3,4.3,0,0,0-1.41-1,4.88,4.88,0,0,0-3.71,0,4.3,4.3,0,0,0-1.41,1,4.18,4.18,0,0,0-.89,1.46A5.21,5.21,0,0,0,1025.93,453.53Zm5.58-11.63h2l-3.27,3.51H1029Z"/><path class="cls-6" d="M1044.46,451.07q0-.32,0-.77t0-.91q0-.46,0-.87t0-.62h1.46q0,.63,0,1.22a3.8,3.8,0,0,0,.06.76,5,5,0,0,1,1.44-1.63,3.57,3.57,0,0,1,2.15-.63,2.43,2.43,0,0,1,.43,0l.43.09-.17,1.44a1.78,1.78,0,0,0-.56-.1,4.07,4.07,0,0,0-1.65.3,3.09,3.09,0,0,0-1.15.84,3.52,3.52,0,0,0-.67,1.26,5.28,5.28,0,0,0-.22,1.55v6.15h-1.46Z"/><path class="cls-6" d="M1063,449.21h-3.22v7.34a1.58,1.58,0,0,0,.41,1.17,1.55,1.55,0,0,0,1.15.41,3.37,3.37,0,0,0,.84-.11,5.34,5.34,0,0,0,.82-.28l.12,1.32a8.68,8.68,0,0,1-1,.27,4.36,4.36,0,0,1-1,.12,3.5,3.5,0,0,1-1.34-.23,2.37,2.37,0,0,1-.9-.62,2.44,2.44,0,0,1-.5-.91,3.9,3.9,0,0,1-.16-1.13v-7.34h-2.44V447.9h2.44v-3.24h1.46v3.24H1063Z"/><path class="cls-6" d="M1080.4,457a4.94,4.94,0,0,1-2.11,1.85,6.72,6.72,0,0,1-2.77.56,6,6,0,0,1-2.34-.44,5.27,5.27,0,0,1-1.8-1.23,5.41,5.41,0,0,1-1.16-1.88,6.86,6.86,0,0,1-.4-2.4,6.44,6.44,0,0,1,.41-2.34,5.59,5.59,0,0,1,1.17-1.87,5.51,5.51,0,0,1,1.78-1.24,5.57,5.57,0,0,1,2.27-.45,5.44,5.44,0,0,1,2.28.45,5,5,0,0,1,1.66,1.2,5.07,5.07,0,0,1,1,1.69,5.67,5.67,0,0,1,.34,1.93v1h-9.46a5,5,0,0,0,.18,1.18,4.18,4.18,0,0,0,.67,1.4,4.24,4.24,0,0,0,1.3,1.17,4.07,4.07,0,0,0,2.11.49,4.71,4.71,0,0,0,2.17-.54,3.91,3.91,0,0,0,1.61-1.46Zm-1.12-4.46a3.33,3.33,0,0,0-.3-1.41,3.79,3.79,0,0,0-.83-1.16,3.93,3.93,0,0,0-1.24-.79,4,4,0,0,0-1.52-.29,3.73,3.73,0,0,0-2,.49,4.35,4.35,0,0,0-1.26,1.12,4.46,4.46,0,0,0-.66,1.23,3.26,3.26,0,0,0-.19.82Z"/><path class="cls-6" d="M1088.92,456.29a3.15,3.15,0,0,0,1.37,1.38,4,4,0,0,0,1.9.48,3.06,3.06,0,0,0,.93-.15,2.83,2.83,0,0,0,.83-.41,2.26,2.26,0,0,0,.6-.65,1.62,1.62,0,0,0,.23-.87,1.39,1.39,0,0,0-.5-1.17,3.72,3.72,0,0,0-1.23-.61,14.77,14.77,0,0,0-1.61-.38,6.88,6.88,0,0,1-1.61-.49,3.47,3.47,0,0,1-1.23-.91,2.48,2.48,0,0,1-.5-1.66,2.9,2.9,0,0,1,.34-1.44,3.14,3.14,0,0,1,.89-1,3.86,3.86,0,0,1,1.23-.6,5,5,0,0,1,1.39-.2,5.26,5.26,0,0,1,2.4.51,3.55,3.55,0,0,1,1.57,1.61l-1.32.78a3.1,3.1,0,0,0-1-1.18,2.94,2.94,0,0,0-1.62-.4,3,3,0,0,0-.82.12,2.86,2.86,0,0,0-.77.34,2,2,0,0,0-.57.56,1.36,1.36,0,0,0-.23.78,1.3,1.3,0,0,0,.5,1.12,3.83,3.83,0,0,0,1.23.57,14.9,14.9,0,0,0,1.61.35,6.51,6.51,0,0,1,1.61.48,3.29,3.29,0,0,1,1.23,1,2.76,2.76,0,0,1,.5,1.77,3.32,3.32,0,0,1-.33,1.52,3.16,3.16,0,0,1-.9,1.09,4,4,0,0,1-1.3.66,5.32,5.32,0,0,1-1.54.22,6.26,6.26,0,0,1-2.67-.56,4.05,4.05,0,0,1-1.87-1.73Z"/><path class="cls-6" d="M1104,443.43a1.08,1.08,0,1,1,.32.78A1.06,1.06,0,0,1,1104,443.43Zm.37,4.46h1.46v11.27h-1.46Z"/><path class="cls-6" d="M1114.91,456.29a3.15,3.15,0,0,0,1.37,1.38,4,4,0,0,0,1.9.48,3.06,3.06,0,0,0,.93-.15,2.83,2.83,0,0,0,.83-.41,2.26,2.26,0,0,0,.6-.65,1.62,1.62,0,0,0,.23-.87,1.39,1.39,0,0,0-.5-1.17,3.72,3.72,0,0,0-1.23-.61,14.77,14.77,0,0,0-1.61-.38,6.88,6.88,0,0,1-1.61-.49,3.47,3.47,0,0,1-1.23-.91,2.48,2.48,0,0,1-.5-1.66,2.9,2.9,0,0,1,.34-1.44,3.14,3.14,0,0,1,.89-1,3.86,3.86,0,0,1,1.23-.6,5,5,0,0,1,1.39-.2,5.26,5.26,0,0,1,2.4.51,3.55,3.55,0,0,1,1.57,1.61l-1.32.78a3.1,3.1,0,0,0-1-1.18,2.94,2.94,0,0,0-1.62-.4,3,3,0,0,0-.82.12,2.86,2.86,0,0,0-.77.34,2,2,0,0,0-.57.56,1.36,1.36,0,0,0-.23.78,1.3,1.3,0,0,0,.5,1.12,3.83,3.83,0,0,0,1.23.57,14.9,14.9,0,0,0,1.61.35,6.51,6.51,0,0,1,1.61.48,3.29,3.29,0,0,1,1.23,1,2.76,2.76,0,0,1,.5,1.77,3.32,3.32,0,0,1-.33,1.52,3.16,3.16,0,0,1-.9,1.09,4,4,0,0,1-1.3.66,5.32,5.32,0,0,1-1.54.22,6.26,6.26,0,0,1-2.67-.56,4.05,4.05,0,0,1-1.87-1.73Z"/><path class="cls-6" d="M1144.54,462.65a4.2,4.2,0,0,1-1.15,1.73,2.88,2.88,0,0,1-2,.63,4.47,4.47,0,0,1-.73-.06,6.52,6.52,0,0,1-.71-.16l.15-1.37.65.18a2.66,2.66,0,0,0,.67.09,1.4,1.4,0,0,0,.7-.17,1.83,1.83,0,0,0,.52-.44,3,3,0,0,0,.38-.6,6.92,6.92,0,0,0,.28-.67l1-2.61-4.58-11.32h1.63l3.73,9.49,3.63-9.49h1.56Z"/><path class="cls-6" d="M1168.44,447.9h1.46v2h0a3.78,3.78,0,0,1,.85-1,5.15,5.15,0,0,1,1.11-.71,5.56,5.56,0,0,1,1.26-.41,6.48,6.48,0,0,1,1.29-.13,6.28,6.28,0,0,1,2.38.44,5.52,5.52,0,0,1,3.11,3.11,6.66,6.66,0,0,1,0,4.76,5.52,5.52,0,0,1-3.11,3.11,6.29,6.29,0,0,1-2.38.44,6.48,6.48,0,0,1-1.29-.13,5.54,5.54,0,0,1-1.26-.41,5.1,5.1,0,0,1-1.11-.71,3.78,3.78,0,0,1-.85-1h0v7.54h-1.46Zm1.32,5.63a4.44,4.44,0,0,0,.37,1.79,4.59,4.59,0,0,0,1,1.46,4.8,4.8,0,0,0,1.49,1,4.66,4.66,0,0,0,1.85.37,4.55,4.55,0,0,0,1.85-.37,4.3,4.3,0,0,0,1.41-1,4.2,4.2,0,0,0,.89-1.46,5.42,5.42,0,0,0,0-3.58,4.19,4.19,0,0,0-.89-1.46,4.3,4.3,0,0,0-1.41-1,4.54,4.54,0,0,0-1.85-.37,4.65,4.65,0,0,0-1.85.37,4.8,4.8,0,0,0-1.49,1,4.58,4.58,0,0,0-1,1.46A4.44,4.44,0,0,0,1169.75,453.53Z"/><path class="cls-6" d="M1188.53,451.07q0-.32,0-.77t0-.91q0-.46,0-.87t0-.62h1.46q0,.63,0,1.22a3.8,3.8,0,0,0,.06.76,5,5,0,0,1,1.44-1.63,3.57,3.57,0,0,1,2.15-.63,2.43,2.43,0,0,1,.43,0l.43.09-.17,1.44a1.78,1.78,0,0,0-.56-.1,4.07,4.07,0,0,0-1.65.3,3.09,3.09,0,0,0-1.15.84,3.52,3.52,0,0,0-.67,1.26A5.28,5.28,0,0,0,1190,453v6.15h-1.46Z"/><path class="cls-6" d="M1200.46,453.53a6.28,6.28,0,0,1,.44-2.38,5.68,5.68,0,0,1,1.22-1.88A5.43,5.43,0,0,1,1204,448a6.37,6.37,0,0,1,2.39-.44,6.28,6.28,0,0,1,2.38.44,5.52,5.52,0,0,1,3.11,3.11,6.66,6.66,0,0,1,0,4.76,5.52,5.52,0,0,1-3.11,3.11,6.29,6.29,0,0,1-2.38.44A6.38,6.38,0,0,1,1204,459a5.43,5.43,0,0,1-1.88-1.23,5.67,5.67,0,0,1-1.22-1.88A6.28,6.28,0,0,1,1200.46,453.53Zm1.46,0a5.21,5.21,0,0,0,.3,1.79,4.19,4.19,0,0,0,.89,1.46,4.3,4.3,0,0,0,1.41,1,4.88,4.88,0,0,0,3.71,0,4.3,4.3,0,0,0,1.41-1,4.2,4.2,0,0,0,.89-1.46,5.42,5.42,0,0,0,0-3.58,4.19,4.19,0,0,0-.89-1.46,4.3,4.3,0,0,0-1.41-1,4.88,4.88,0,0,0-3.71,0,4.3,4.3,0,0,0-1.41,1,4.18,4.18,0,0,0-.89,1.46A5.21,5.21,0,0,0,1201.92,453.53Zm5.58-11.63h2l-3.27,3.51H1205Z"/><path class="cls-6" d="M1226,449.21h-3.22v7.34a1.58,1.58,0,0,0,.41,1.17,1.55,1.55,0,0,0,1.15.41,3.37,3.37,0,0,0,.84-.11,5.34,5.34,0,0,0,.82-.28l.12,1.32a8.68,8.68,0,0,1-1,.27,4.36,4.36,0,0,1-1,.12,3.5,3.5,0,0,1-1.34-.23,2.37,2.37,0,0,1-.9-.62,2.44,2.44,0,0,1-.5-.91,3.9,3.9,0,0,1-.16-1.13v-7.34h-2.44V447.9h2.44v-3.24h1.46v3.24H1226Z"/><path class="cls-6" d="M1243.4,457a4.94,4.94,0,0,1-2.11,1.85,6.72,6.72,0,0,1-2.77.56,6,6,0,0,1-2.34-.44,5.27,5.27,0,0,1-1.8-1.23,5.41,5.41,0,0,1-1.16-1.88,6.86,6.86,0,0,1-.4-2.4,6.44,6.44,0,0,1,.41-2.34,5.59,5.59,0,0,1,1.17-1.87,5.51,5.51,0,0,1,1.78-1.24,5.57,5.57,0,0,1,2.27-.45,5.44,5.44,0,0,1,2.28.45,5,5,0,0,1,1.66,1.2,5.07,5.07,0,0,1,1,1.69,5.67,5.67,0,0,1,.34,1.93v1h-9.46a5,5,0,0,0,.18,1.18,4.18,4.18,0,0,0,.67,1.4,4.24,4.24,0,0,0,1.3,1.17,4.07,4.07,0,0,0,2.11.49,4.71,4.71,0,0,0,2.17-.54,3.91,3.91,0,0,0,1.61-1.46Zm-1.12-4.46a3.33,3.33,0,0,0-.3-1.41,3.79,3.79,0,0,0-.83-1.16,3.93,3.93,0,0,0-1.24-.79,4,4,0,0,0-1.52-.29,3.73,3.73,0,0,0-2,.49,4.35,4.35,0,0,0-1.26,1.12,4.46,4.46,0,0,0-.66,1.23,3.26,3.26,0,0,0-.19.82Z"/><path class="cls-6" d="M1251.91,456.29a3.15,3.15,0,0,0,1.37,1.38,4,4,0,0,0,1.9.48,3.06,3.06,0,0,0,.93-.15,2.83,2.83,0,0,0,.83-.41,2.26,2.26,0,0,0,.6-.65,1.62,1.62,0,0,0,.23-.87,1.39,1.39,0,0,0-.5-1.17,3.72,3.72,0,0,0-1.23-.61,14.77,14.77,0,0,0-1.61-.38,6.88,6.88,0,0,1-1.61-.49,3.47,3.47,0,0,1-1.23-.91,2.48,2.48,0,0,1-.5-1.66,2.9,2.9,0,0,1,.34-1.44,3.14,3.14,0,0,1,.89-1,3.86,3.86,0,0,1,1.23-.6,5,5,0,0,1,1.39-.2,5.26,5.26,0,0,1,2.4.51,3.55,3.55,0,0,1,1.57,1.61l-1.32.78a3.1,3.1,0,0,0-1-1.18,2.94,2.94,0,0,0-1.62-.4,3,3,0,0,0-.82.12,2.86,2.86,0,0,0-.77.34,2,2,0,0,0-.57.56,1.36,1.36,0,0,0-.23.78,1.3,1.3,0,0,0,.5,1.12,3.83,3.83,0,0,0,1.23.57,14.9,14.9,0,0,0,1.61.35,6.51,6.51,0,0,1,1.61.48,3.29,3.29,0,0,1,1.23,1,2.76,2.76,0,0,1,.5,1.77,3.32,3.32,0,0,1-.33,1.52,3.16,3.16,0,0,1-.9,1.09,4,4,0,0,1-1.3.66,5.32,5.32,0,0,1-1.54.22,6.26,6.26,0,0,1-2.67-.56,4.05,4.05,0,0,1-1.87-1.73Z"/><path class="cls-6" d="M1267,443.43a1.08,1.08,0,1,1,.32.78A1.06,1.06,0,0,1,1267,443.43Zm.37,4.46h1.46v11.27h-1.46Z"/><path class="cls-6" d="M1277.91,456.29a3.15,3.15,0,0,0,1.37,1.38,4,4,0,0,0,1.9.48,3.06,3.06,0,0,0,.93-.15,2.83,2.83,0,0,0,.83-.41,2.26,2.26,0,0,0,.6-.65,1.62,1.62,0,0,0,.23-.87,1.39,1.39,0,0,0-.5-1.17,3.72,3.72,0,0,0-1.23-.61,14.77,14.77,0,0,0-1.61-.38,6.88,6.88,0,0,1-1.61-.49,3.47,3.47,0,0,1-1.23-.91,2.48,2.48,0,0,1-.5-1.66,2.9,2.9,0,0,1,.34-1.44,3.14,3.14,0,0,1,.89-1,3.86,3.86,0,0,1,1.23-.6,5,5,0,0,1,1.39-.2,5.26,5.26,0,0,1,2.4.51,3.55,3.55,0,0,1,1.57,1.61l-1.32.78a3.1,3.1,0,0,0-1-1.18,2.94,2.94,0,0,0-1.62-.4,3,3,0,0,0-.82.12,2.86,2.86,0,0,0-.77.34,2,2,0,0,0-.57.56,1.36,1.36,0,0,0-.23.78,1.3,1.3,0,0,0,.5,1.12,3.83,3.83,0,0,0,1.23.57,14.9,14.9,0,0,0,1.61.35,6.51,6.51,0,0,1,1.61.48,3.29,3.29,0,0,1,1.23,1,2.76,2.76,0,0,1,.5,1.77,3.32,3.32,0,0,1-.33,1.52,3.16,3.16,0,0,1-.9,1.09,4,4,0,0,1-1.3.66,5.32,5.32,0,0,1-1.54.22,6.26,6.26,0,0,1-2.67-.56,4.05,4.05,0,0,1-1.87-1.73Z"/><path class="cls-7" d="M703.87,320.13c16.51.45,16.54,50.09,22.52,85.47s.46,37.22-3.68,40.44S704,462.1,680.59,462.1s3-46.74,5.82-74.42C689.45,358,660.68,319,703.87,320.13Z"/><path class="cls-8" d="M686,463.47c-21.21,0-10.52-34.22-5-59.71,5.46-25-17.47-55.62,18.31-57,15.47-.59,17.05,40.32,22.37,67.55s4.42,29.29,1.32,34.12S705,463.47,686,463.47Z"/><path class="cls-9" d="M692.13,463.47c-19,0-19.65-21.58-15.89-43.63,3.6-21.09-9.18-44.06,19.16-46.41C710.28,372.2,713,404,717.63,423.06s8.37,21.37,6.31,27.8S706.69,463.47,692.13,463.47Z"/><path class="cls-10" d="M699.66,463.51c-16.75,0-28.74-8.94-26.82-27.54,1.77-17.15-.9-32.86,20-35.84,14.26-2,18.08,20.79,22.08,31.71s12.33,13.44,11.3,21.48S709.78,463.51,699.66,463.51Z"/><path class="cls-11" d="M707.69,463.47c5.68,0,21.33,1.87,21.33-7.78s-12.95-12.41-16.29-15.16-8.35-17-21.93-13.79S669.94,438.81,669.94,452C669.94,467.18,693.17,463.47,707.69,463.47Z"/><path class="cls-6" d="M782.77,350.08H809a57.29,57.29,0,0,1,12.5,1.25,26.09,26.09,0,0,1,9.55,4.09,19.07,19.07,0,0,1,6.14,7.27,24.22,24.22,0,0,1,2.16,10.68,23.1,23.1,0,0,1-2.5,11.25,20.29,20.29,0,0,1-6.76,7.33,29.64,29.64,0,0,1-9.95,4,55.9,55.9,0,0,1-12,1.25h-11v33.3H782.77ZM807.1,385.2a42.28,42.28,0,0,0,6.71-.51,18.52,18.52,0,0,0,5.68-1.82,10.38,10.38,0,0,0,4-3.58,10.68,10.68,0,0,0,1.48-5.91,9.52,9.52,0,0,0-5.4-9.21,16.84,16.84,0,0,0-5.57-1.65,51.08,51.08,0,0,0-6.42-.4H797.09V385.2Z"/><path class="cls-6" d="M846.19,376h13.07v9.09h.23a19.9,19.9,0,0,1,6.36-7.73,15.88,15.88,0,0,1,9.55-3q.79,0,1.7.06a6.38,6.38,0,0,1,1.59.28v12.5a19.22,19.22,0,0,0-2.33-.45,16.24,16.24,0,0,0-1.88-.11,14.46,14.46,0,0,0-7.5,1.71,13.61,13.61,0,0,0-4.43,4.09,14.64,14.64,0,0,0-2.16,4.89,19,19,0,0,0-.57,4v29.21H846.19Z"/><path class="cls-6" d="M882.34,403a28.85,28.85,0,0,1,2.33-11.76,27.47,27.47,0,0,1,6.31-9,27.8,27.8,0,0,1,9.43-5.8,33.88,33.88,0,0,1,23.19,0,27.82,27.82,0,0,1,9.43,5.8,27.52,27.52,0,0,1,6.31,9A28.89,28.89,0,0,1,941.67,403a29.29,29.29,0,0,1-2.33,11.82A28,28,0,0,1,933,424a28.78,28.78,0,0,1-9.43,6,32.2,32.2,0,0,1-23.19,0,28.76,28.76,0,0,1-9.43-6,27.94,27.94,0,0,1-6.31-9.15A29.25,29.25,0,0,1,882.34,403Zm13.87,0a21.77,21.77,0,0,0,1,6.36,17.49,17.49,0,0,0,2.9,5.68,15.15,15.15,0,0,0,4.89,4.09,16.4,16.4,0,0,0,14.09,0,15.18,15.18,0,0,0,4.89-4.09,17.53,17.53,0,0,0,2.9-5.68,21.83,21.83,0,0,0,1-6.36,21.3,21.3,0,0,0-1-6.31,17.66,17.66,0,0,0-2.9-5.63,14.6,14.6,0,0,0-4.89-4,16.95,16.95,0,0,0-14.09,0,14.57,14.57,0,0,0-4.89,4,17.63,17.63,0,0,0-2.9,5.63A21.24,21.24,0,0,0,896.2,403Z"/><path class="cls-6" d="M990.43,396.13q0-6.88-3.64-10.27t-10.57-3.39a22.83,22.83,0,0,0-8.87,1.71,21.22,21.22,0,0,0-6.93,4.55l-4.32-5.11a25.53,25.53,0,0,1,8.69-5.46A32.69,32.69,0,0,1,977,376a26.46,26.46,0,0,1,8.07,1.19,19.16,19.16,0,0,1,6.59,3.58,16.24,16.24,0,0,1,4.43,6,21.13,21.13,0,0,1,1.59,8.52v23.3q0,3.07.23,6.37a44.29,44.29,0,0,0,.68,5.57h-6.93q-.34-1.93-.57-4.21a44,44,0,0,1-.23-4.43h-.23a22.41,22.41,0,0,1-8.24,7.67,24.31,24.31,0,0,1-11.08,2.33,24.74,24.74,0,0,1-6.31-.85,17.6,17.6,0,0,1-5.91-2.79,15.76,15.76,0,0,1-4.43-5,14.92,14.92,0,0,1-1.76-7.53q0-6.16,3.12-9.75a18.76,18.76,0,0,1,8.35-5.36,49.07,49.07,0,0,1,12-2.28q6.76-.51,14-.51ZM988.15,404q-4.77,0-9.6.4a42,42,0,0,0-8.75,1.59,16.56,16.56,0,0,0-6.42,3.47,7.75,7.75,0,0,0-2.5,6,9.65,9.65,0,0,0,1.08,4.77,8.8,8.8,0,0,0,2.9,3.12,12.33,12.33,0,0,0,4,1.71,19.93,19.93,0,0,0,4.49.51,17.65,17.65,0,0,0,7.27-1.42,15.37,15.37,0,0,0,5.34-3.86,17.1,17.1,0,0,0,3.3-5.63,19.81,19.81,0,0,0,1.14-6.71v-4Z"/><path class="cls-6" d="M1055.89,389.52a14.7,14.7,0,0,0-5.63-5.06,16.65,16.65,0,0,0-8-2,20.69,20.69,0,0,0-8.41,1.65,19,19,0,0,0-6.42,4.55,20,20,0,0,0-4.09,6.82,24.66,24.66,0,0,0-1.42,8.47,24.17,24.17,0,0,0,1.42,8.41,20.56,20.56,0,0,0,4,6.76,18.43,18.43,0,0,0,6.36,4.55,20.69,20.69,0,0,0,8.41,1.65,17,17,0,0,0,14.44-6.93l5.8,4.32a25.32,25.32,0,0,1-8.35,6.71,26.09,26.09,0,0,1-11.88,2.5,31.13,31.13,0,0,1-11.71-2.1,25.9,25.9,0,0,1-8.92-5.85,26.5,26.5,0,0,1-5.74-8.87,31.34,31.34,0,0,1,0-22.28,26.5,26.5,0,0,1,5.74-8.87,25.92,25.92,0,0,1,8.92-5.85,31.13,31.13,0,0,1,11.71-2.1,27.76,27.76,0,0,1,10.86,2.33,21.26,21.26,0,0,1,8.92,6.88Z"/><path class="cls-6" d="M1098.4,383.84h-15v31a17.61,17.61,0,0,0,.57,4.89,6.92,6.92,0,0,0,1.65,3,5.6,5.6,0,0,0,2.56,1.48,12.13,12.13,0,0,0,3.18.4,13.44,13.44,0,0,0,3.35-.45,17,17,0,0,0,3.35-1.25l.34,6.71a23,23,0,0,1-4.26,1.19,27.42,27.42,0,0,1-4.83.4,19.64,19.64,0,0,1-4.55-.57,11.46,11.46,0,0,1-4.43-2.16,11.78,11.78,0,0,1-3.35-4.32,16.68,16.68,0,0,1-1.31-7.16V383.84h-11v-6.48h11v-15h7.73v15h15Z"/><path class="cls-6" d="M1119.88,356.9a5,5,0,0,1-1.71,3.92,5.35,5.35,0,0,1-7.5,0,5.36,5.36,0,0,1,0-7.84,5.35,5.35,0,0,1,7.5,0A5,5,0,0,1,1119.88,356.9Zm-1.59,73.65h-7.73V377.36h7.73Z"/><path class="cls-6" d="M1146.82,421.57v9h-7.73V344.63h7.73v41.94h.23a22,22,0,0,1,8.87-7.9,25.32,25.32,0,0,1,11.25-2.67,28.55,28.55,0,0,1,11.31,2.16,25.77,25.77,0,0,1,8.64,5.91,26.68,26.68,0,0,1,5.57,8.86,31.56,31.56,0,0,1,0,22.05,26.68,26.68,0,0,1-5.57,8.86,25.75,25.75,0,0,1-8.64,5.91,28.55,28.55,0,0,1-11.31,2.16,25.76,25.76,0,0,1-11.25-2.61,21.81,21.81,0,0,1-8.87-7.73ZM1186.48,404a25.23,25.23,0,0,0-1.36-8.35,20.23,20.23,0,0,0-3.92-6.82,18.47,18.47,0,0,0-6.31-4.6,20.38,20.38,0,0,0-8.52-1.71,20.13,20.13,0,0,0-8.18,1.65,19.67,19.67,0,0,0-6.48,4.55,21,21,0,0,0-4.26,6.82,24.14,24.14,0,0,0,0,16.94,20.35,20.35,0,0,0,4.26,6.76,20.06,20.06,0,0,0,14.66,6.14,21,21,0,0,0,8.52-1.65,17.85,17.85,0,0,0,6.31-4.55,20.23,20.23,0,0,0,3.92-6.82A25.24,25.24,0,0,0,1186.48,404Z"/><path class="cls-6" d="M1219.21,430.55h-7.73V344.63h7.73Z"/><path class="cls-6" d="M1288.32,402.37v1.71a17.71,17.71,0,0,1-.11,1.93h-44.1a20.66,20.66,0,0,0,1.59,7.5,18.89,18.89,0,0,0,4.09,6.14,19.69,19.69,0,0,0,6.14,4.15,20.32,20.32,0,0,0,18-1.25,20.81,20.81,0,0,0,6.65-6.42l5.8,4.55a28.82,28.82,0,0,1-10.51,8.64,29.4,29.4,0,0,1-12.33,2.61,28.29,28.29,0,0,1-11-2.1,25.68,25.68,0,0,1-8.69-5.85,27.7,27.7,0,0,1-5.74-8.87A29,29,0,0,1,1236,404a29.71,29.71,0,0,1,2-11.14,27,27,0,0,1,5.68-8.87,26.14,26.14,0,0,1,8.52-5.85,26.46,26.46,0,0,1,10.57-2.1,27.14,27.14,0,0,1,11,2.1,22.76,22.76,0,0,1,8,5.68,24.45,24.45,0,0,1,4.83,8.35A31.15,31.15,0,0,1,1288.32,402.37Zm-7.84-2.5a19.18,19.18,0,0,0-4.83-12.45q-4.49-4.94-12.79-4.94a17.9,17.9,0,0,0-7.16,1.42,18.91,18.91,0,0,0-5.8,3.86,19.21,19.21,0,0,0-4,5.57,17.9,17.9,0,0,0-1.7,6.54Z"/><g class="cls-12"><path class="cls-7" d="M703.87,320.13c16.51.45,16.54,50.09,22.52,85.47s.46,37.22-3.68,40.44S704,462.1,680.59,462.1s3-46.74,5.82-74.42C689.45,358,660.68,319,703.87,320.13Z"/></g><g class="cls-12"><path class="cls-8" d="M686,463.47c-21.21,0-10.52-34.22-5-59.71,5.46-25-17.47-55.62,18.31-57,15.47-.59,17.05,40.32,22.37,67.55s4.42,29.29,1.32,34.12S705,463.47,686,463.47Z"/></g><g class="cls-12"><path class="cls-9" d="M692.13,463.47c-19,0-19.65-21.58-15.89-43.63,3.6-21.09-9.18-44.06,19.16-46.41C710.28,372.2,713,404,717.63,423.06s8.37,21.37,6.31,27.8S706.69,463.47,692.13,463.47Z"/></g><g class="cls-12"><path class="cls-10" d="M699.66,463.51c-16.75,0-28.74-8.94-26.82-27.54,1.77-17.15-.9-32.86,20-35.84,14.26-2,18.08,20.79,22.08,31.71s12.33,13.44,11.3,21.48S709.78,463.51,699.66,463.51Z"/></g><g class="cls-12"><path class="cls-11" d="M707.69,463.47c5.68,0,21.33,1.87,21.33-7.78s-12.95-12.41-16.29-15.16-8.35-17-21.93-13.79S669.94,438.81,669.94,452C669.94,467.18,693.17,463.47,707.69,463.47Z"/></g></g></g></svg>